# The Great Editor v0.0.1
mtllib floor_1.mtl
o floor_1
v 0.27610894321892165 -9.820556263438718 0
v 0.27610894321892165 -9.820556263438718 -0.1
v 0.26971211276578794 -13.049868599187702 0
v 0.26971211276578794 -13.049868599187702 -0.1
v 0.9397069363701519 -13.053631440630722 0
v 0.9397069363701519 -13.053631440630722 -0.1
v 0.9397069363701519 -9.822981205701998 0
v 0.9397069363701519 -9.822981205701998 -0.1
vt 0.27610894321892165 -9.820556263438718 0
vt 0.26971211276578794 -13.049868599187702 0
vt 0.9397069363701519 -13.053631440630722 0
vt 0.9397069363701519 -9.822981205701998 0
vn 0 0 1
vn 0 0 -1
usemtl floor_1
s off
f 3/2/1 7/4/1 1/1/1
f 2/1/2 8/4/2 4/2/2
f 3/2/1 5/3/1 7/4/1
f 8/4/2 6/3/2 4/2/2
