# The Great Editor v0.0.1
mtllib floor_6.mtl
o floor_6
v 10.397692522099227 0.39041570438799067 0
v 10.397692522099227 0.39041570438799067 -0.1
v 14.42464362506968 0.38966313609938674 0
v 14.42464362506968 0.38966313609938674 -0.1
v 14.419835549892488 -4.557553555785617 0
v 14.419835549892488 -4.557553555785617 -0.1
v 10.395518435932148 -4.557553555785617 0
v 10.395518435932148 -4.557553555785617 -0.1
v 10.396312813570118 -2.6660567810782827 0
v 10.396312813570118 -2.6660567810782827 -0.1
v 10.393637015210638 -1.851234371267022 0
v 10.393637015210638 -1.851234371267022 -0.1
vt 10.397692522099227 0.39041570438799067 0
vt 14.42464362506968 0.38966313609938674 0
vt 14.419835549892488 -4.557553555785617 0
vt 10.395518435932148 -4.557553555785617 0
vt 10.396312813570118 -2.6660567810782827 0
vt 10.393637015210638 -1.851234371267022 0
vn 0 0 1
vn 0 0 -1
usemtl floor_6
s off
f 11/6/1 3/2/1 1/1/1
f 2/1/2 4/2/2 12/6/2
f 11/6/1 5/3/1 3/2/1
f 4/2/2 6/3/2 12/6/2
f 11/6/1 9/5/1 5/3/1
f 6/3/2 10/5/2 12/6/2
f 9/5/1 7/4/1 5/3/1
f 6/3/2 8/4/2 10/5/2
