# The Great Editor v0.0.1
mtllib floor_11.mtl
o floor_11
v 4.389730827426932 -9.593907780520823 0
v 4.389730827426932 -9.593907780520823 -0.1
v 4.386553316875049 -9.813448674046347 0
v 4.386553316875049 -9.813448674046347 -0.1
v 4.390734251811738 -10.297600939714899 0
v 4.390734251811738 -10.297600939714899 -0.1
v 4.399639643226885 -13.053631440630722 0
v 4.399639643226885 -13.053631440630722 -0.1
v 5.091877040694432 -13.05220992275225 0
v 5.091877040694432 -13.05220992275225 -0.1
v 9.85705582543601 -13.064083777972444 0
v 9.85705582543601 -13.064083777972444 -0.1
v 9.903004300390219 -12.398855220195905 0
v 9.903004300390219 -12.398855220195905 -0.1
v 9.869598630246077 -10.875782432109578 0
v 9.869598630246077 -10.875782432109578 -0.1
v 9.874030421278967 -9.976881420721508 0
v 9.874030421278967 -9.976881420721508 -0.1
v 9.859522577048656 -8.976216452974434 0
v 9.859522577048656 -8.976216452974434 -0.1
v 10.094700167237395 -8.97011228796687 0
v 10.094700167237395 -8.97011228796687 -0.1
v 10.092024368877915 -7.92454407899976 0
v 10.092024368877915 -7.92454407899976 -0.1
v 10.090644660348808 -6.478275065700405 0
v 10.090644660348808 -6.478275065700405 -0.1
v 10.091857131480447 -5.709108465397785 0
v 10.091857131480447 -5.709108465397785 -0.1
v 10.087007246953888 -5.309494704149079 0
v 10.087007246953888 -5.309494704149079 -0.1
v 9.949454487536832 -5.309076610655411 0
v 9.949454487536832 -5.309076610655411 -0.1
v 9.949454487536832 -4.958630644262164 0
v 9.949454487536832 -4.958630644262164 -0.1
v 8.831472485466273 -4.954157043879907 0
v 8.831472485466273 -4.954157043879907 -0.1
v 8.831472485466273 -5.3135084016883 0
v 8.831472485466273 -5.3135084016883 -0.1
v 5.654254599028429 -5.31472087281994 0
v 5.654254599028429 -5.31472087281994 -0.1
v 5.652665843752487 -6.297115154893684 0
v 5.652665843752487 -6.297115154893684 -0.1
v 5.949052321414349 -6.297115154893684 0
v 5.949052321414349 -6.297115154893684 -0.1
v 5.949052321414349 -6.5342577845026675 0
v 5.949052321414349 -6.5342577845026675 -0.1
v 5.6457254917575845 -6.520293461814127 0
v 5.6457254917575845 -6.520293461814127 -0.1
v 5.645223779565182 -6.99152663852831 0
v 5.645223779565182 -6.99152663852831 -0.1
v 5.088114199251413 -6.989896073903001 0
v 5.088114199251413 -6.989896073903001 -0.1
v 5.084058692362825 -7.118877916699848 0
v 5.084058692362825 -7.118877916699848 -0.1
v 5.087487059010909 -7.972206737278011 0
v 5.087487059010909 -7.972206737278011 -0.1
v 5.086776300071672 -9.594827586206895 0
v 5.086776300071672 -9.594827586206895 -0.1
vt 4.389730827426932 -9.593907780520823 0
vt 4.386553316875049 -9.813448674046347 0
vt 4.390734251811738 -10.297600939714899 0
vt 4.399639643226885 -13.053631440630722 0
vt 5.091877040694432 -13.05220992275225 0
vt 9.85705582543601 -13.064083777972444 0
vt 9.903004300390219 -12.398855220195905 0
vt 9.869598630246077 -10.875782432109578 0
vt 9.874030421278967 -9.976881420721508 0
vt 9.859522577048656 -8.976216452974434 0
vt 10.094700167237395 -8.97011228796687 0
vt 10.092024368877915 -7.92454407899976 0
vt 10.090644660348808 -6.478275065700405 0
vt 10.091857131480447 -5.709108465397785 0
vt 10.087007246953888 -5.309494704149079 0
vt 9.949454487536832 -5.309076610655411 0
vt 9.949454487536832 -4.958630644262164 0
vt 8.831472485466273 -4.954157043879907 0
vt 8.831472485466273 -5.3135084016883 0
vt 5.654254599028429 -5.31472087281994 0
vt 5.652665843752487 -6.297115154893684 0
vt 5.949052321414349 -6.297115154893684 0
vt 5.949052321414349 -6.5342577845026675 0
vt 5.6457254917575845 -6.520293461814127 0
vt 5.645223779565182 -6.99152663852831 0
vt 5.088114199251413 -6.989896073903001 0
vt 5.084058692362825 -7.118877916699848 0
vt 5.087487059010909 -7.972206737278011 0
vt 5.086776300071672 -9.594827586206895 0
vn 0 0 1
vn 0 0 -1
usemtl floor_11
s off
f 53/27/1 49/25/1 51/26/1
f 52/26/2 50/25/2 54/27/2
f 41/21/1 43/22/1 39/20/1
f 40/20/2 44/22/2 42/21/2
f 43/22/1 37/19/1 39/20/1
f 40/20/2 38/19/2 44/22/2
f 37/19/1 33/17/1 35/18/1
f 36/18/2 34/17/2 38/19/2
f 37/19/1 31/16/1 33/17/1
f 34/17/2 32/16/2 38/19/2
f 31/16/1 27/14/1 29/15/1
f 30/15/2 28/14/2 32/16/2
f 11/6/1 13/7/1 9/5/1
f 10/5/2 14/7/2 12/6/2
f 13/7/1 15/8/1 9/5/1
f 10/5/2 16/8/2 14/7/2
f 15/8/1 57/29/1 9/5/1
f 10/5/2 58/29/2 16/8/2
f 57/29/1 5/3/1 9/5/1
f 10/5/2 6/3/2 58/29/2
f 5/3/1 7/4/1 9/5/1
f 10/5/2 8/4/2 6/3/2
f 57/29/1 3/2/1 5/3/1
f 6/3/2 4/2/2 58/29/2
f 57/29/1 1/1/1 3/2/1
f 4/2/2 2/1/2 58/29/2
f 55/28/1 49/25/1 53/27/1
f 54/27/2 50/25/2 56/28/2
f 55/28/1 19/10/1 49/25/1
f 50/25/2 20/10/2 56/28/2
f 19/10/1 45/23/1 49/25/1
f 50/25/2 46/23/2 20/10/2
f 45/23/1 47/24/1 49/25/1
f 50/25/2 48/24/2 46/23/2
f 45/23/1 37/19/1 43/22/1
f 44/22/2 38/19/2 46/23/2
f 45/23/1 23/12/1 37/19/1
f 38/19/2 24/12/2 46/23/2
f 23/12/1 25/13/1 37/19/1
f 38/19/2 26/13/2 24/12/2
f 25/13/1 27/14/1 37/19/1
f 38/19/2 28/14/2 26/13/2
f 27/14/1 31/16/1 37/19/1
f 38/19/2 32/16/2 28/14/2
f 45/23/1 19/10/1 23/12/1
f 24/12/2 20/10/2 46/23/2
f 19/10/1 21/11/1 23/12/1
f 24/12/2 22/11/2 20/10/2
f 17/9/1 57/29/1 15/8/1
f 16/8/2 58/29/2 18/9/2
f 17/9/1 19/10/1 57/29/1
f 58/29/2 20/10/2 18/9/2
f 19/10/1 55/28/1 57/29/1
f 58/29/2 56/28/2 20/10/2
