# The Great Editor v0.0.1
mtllib floor_9.mtl
o floor_9
v 2.828151628573704 -6.986007804411881 0
v 2.828151628573704 -6.986007804411881 -0.1
v 2.829531337102811 -6.491319582702873 0
v 2.829531337102811 -6.491319582702873 -0.1
v 3.2350820259616144 -5.667173687982798 0
v 3.2350820259616144 -5.667173687982798 -0.1
v 3.4063331209683834 -5.328016245918611 0
v 3.4063331209683834 -5.328016245918611 -0.1
v 5.654254599028429 -5.31472087281994 0
v 5.654254599028429 -5.31472087281994 -0.1
v 5.652665843752487 -6.297115154893684 0
v 5.652665843752487 -6.297115154893684 -0.1
v 4.436808154814047 -6.297324201640518 0
v 4.436808154814047 -6.297324201640518 -0.1
v 4.432250935733056 -6.987554750338455 0
v 4.432250935733056 -6.987554750338455 -0.1
vt 2.828151628573704 -6.986007804411881 0
vt 2.829531337102811 -6.491319582702873 0
vt 3.2350820259616144 -5.667173687982798 0
vt 3.4063331209683834 -5.328016245918611 0
vt 5.654254599028429 -5.31472087281994 0
vt 5.652665843752487 -6.297115154893684 0
vt 4.436808154814047 -6.297324201640518 0
vt 4.432250935733056 -6.987554750338455 0
vn 0 0 1
vn 0 0 -1
usemtl floor_9
s off
f 1/1/1 15/8/1 3/2/1
f 4/2/2 16/8/2 2/1/2
f 15/8/1 13/7/1 3/2/1
f 4/2/2 14/7/2 16/8/2
f 13/7/1 5/3/1 3/2/1
f 4/2/2 6/3/2 14/7/2
f 13/7/1 7/4/1 5/3/1
f 6/3/2 8/4/2 14/7/2
f 13/7/1 9/5/1 7/4/1
f 8/4/2 10/5/2 14/7/2
f 13/7/1 11/6/1 9/5/1
f 10/5/2 12/6/2 14/7/2
