# The Great Editor v0.0.1
mtllib floor_2.mtl
o floor_2
v 0.9397069363701519 -9.822981205701998 0
v 0.9397069363701519 -9.822981205701998 -0.1
v 4.072230628334793 -9.8172951341881 0
v 4.072230628334793 -9.8172951341881 -0.1
v 4.0719379628892245 -10.297642749064266 0
v 4.0719379628892245 -10.297642749064266 -0.1
v 4.390734251811738 -10.297600939714899 0
v 4.390734251811738 -10.297600939714899 -0.1
v 4.399639643226885 -13.053631440630722 0
v 4.399639643226885 -13.053631440630722 -0.1
v 0.9397069363701519 -13.053631440630722 0
v 0.9397069363701519 -13.053631440630722 -0.1
vt 0.9397069363701519 -9.822981205701998 0
vt 4.072230628334793 -9.8172951341881 0
vt 4.0719379628892245 -10.297642749064266 0
vt 4.390734251811738 -10.297600939714899 0
vt 4.399639643226885 -13.053631440630722 0
vt 0.9397069363701519 -13.053631440630722 0
vn 0 0 1
vn 0 0 -1
usemtl floor_2
s off
f 11/6/1 5/3/1 1/1/1
f 2/1/2 6/3/2 12/6/2
f 5/3/1 3/2/1 1/1/1
f 2/1/2 4/2/2 6/3/2
f 5/3/1 9/5/1 7/4/1
f 8/4/2 10/5/2 6/3/2
f 9/5/1 5/3/1 11/6/1
f 12/6/2 6/3/2 10/5/2
